<svg xmlns="http://www.w3.org/2000/svg" width="960" height="1348" viewBox="0 0 960 1348" shape-rendering="crispEdges"><rect x="0" y="0" width="960" height="1348" fill="#091426"/><text x="26" y="38" fill="#72e5d6" font-size="24" font-family="monospace">FLAPPY FILES</text><text x="26" y="65" fill="#c3c9d8" font-size="12" font-family="monospace">ORIGINAL PIXEL CONCEPT OPTIONS / REVIEW SHEET</text><text x="26" y="87" fill="#91a1bb" font-size="11" font-family="monospace">Fictional satire. Options are concept drawings, not finished animation atlases.</text><text x="265" y="122" fill="#ffcd80" font-size="13" font-family="monospace">A — ARCADE</text><text x="490" y="122" fill="#ffcd80" font-size="13" font-family="monospace">B — PAPER SATIRE</text><text x="715" y="122" fill="#ffcd80" font-size="13" font-family="monospace">C — CHUNKY CARTOON</text><rect x="20" y="145" width="920" height="119" fill="#102036"/><text x="32" y="181" fill="#e9e7db" font-size="12" font-family="monospace">Eagle courier</text><text x="32" y="202" fill="#879db7" font-size="11" font-family="monospace">FL-01</text><g transform="translate(268 153) scale(1.35)"><path d="M12 24L41 34L65 30L96 17L84 39L61 54L35 46Z" fill="#956947"/><rect x="57" y="23" width="22" height="17" fill="#fff1d5"/><path d="M79 28L94 34L79 38Z" fill="#ffcd80"/><rect x="70" y="28" width="3" height="3" fill="#09182b"/><rect x="49" y="49" width="29" height="16" fill="#ffcd80"/><text x="51" y="59" fill="#09182b" font-size="6" font-family="monospace">FILES</text></g><g transform="translate(493 153) scale(1.35)"><path d="M18 42L36 15L57 33L82 12L101 29L72 48Z" fill="#956947"/><rect x="57" y="23" width="22" height="17" fill="#faf2df"/><path d="M79 28L94 34L79 38Z" fill="#eed7a7"/><rect x="70" y="28" width="3" height="3" fill="#242137"/><rect x="49" y="49" width="29" height="16" fill="#eed7a7"/><text x="51" y="59" fill="#242137" font-size="6" font-family="monospace">FILES</text></g><g transform="translate(718 153) scale(1.35)"><path d="M12 24L41 34L65 30L96 17L84 39L61 54L35 46Z" fill="#956947"/><rect x="57" y="23" width="22" height="17" fill="#ffffff"/><path d="M79 28L94 34L79 38Z" fill="#ffdc66"/><rect x="70" y="28" width="3" height="3" fill="#111c37"/><rect x="49" y="49" width="29" height="16" fill="#ffdc66"/><text x="51" y="59" fill="#111c37" font-size="6" font-family="monospace">FILES</text></g><rect x="20" y="277" width="920" height="119" fill="#13243b"/><text x="32" y="313" fill="#e9e7db" font-size="12" font-family="monospace">Epstein Files packet</text><text x="32" y="334" fill="#879db7" font-size="11" font-family="monospace">FL-02</text><g transform="translate(268 285) scale(1.35)"><rect x="24" y="15" width="58" height="42" fill="#fff1d5"/><rect x="20" y="24" width="66" height="41" fill="#ffcd80"/><rect x="20" y="18" width="27" height="8" fill="#ffcd80"/><text x="25" y="37" fill="#09182b" font-size="8" font-family="monospace">EPSTEIN</text><text x="25" y="47" fill="#09182b" font-size="8" font-family="monospace">FILES</text><rect x="28" y="54" width="27" height="3" fill="#ff688b"/></g><g transform="translate(493 285) scale(1.35)"><rect x="24" y="15" width="58" height="42" fill="#faf2df"/><rect x="20" y="24" width="66" height="41" fill="#eed7a7"/><rect x="20" y="18" width="27" height="8" fill="#eed7a7"/><text x="25" y="37" fill="#242137" font-size="8" font-family="monospace">EPSTEIN</text><text x="25" y="47" fill="#242137" font-size="8" font-family="monospace">FILES</text><rect x="27" y="51" width="47" height="5" fill="#242137"/></g><g transform="translate(718 285) scale(1.35)"><rect x="24" y="15" width="58" height="42" fill="#ffffff"/><rect x="20" y="24" width="66" height="41" fill="#ffdc66"/><rect x="20" y="18" width="27" height="8" fill="#ffdc66"/><text x="25" y="37" fill="#111c37" font-size="8" font-family="monospace">EPSTEIN</text><text x="25" y="47" fill="#111c37" font-size="8" font-family="monospace">FILES</text><rect x="28" y="54" width="27" height="3" fill="#ed5a91"/></g><rect x="20" y="409" width="920" height="119" fill="#102036"/><text x="32" y="445" fill="#e9e7db" font-size="12" font-family="monospace">Named GOP obstacle</text><text x="32" y="466" fill="#879db7" font-size="11" font-family="monospace">FL-03</text><g transform="translate(268 417) scale(1.35)"><rect x="48" y="10" width="16" height="19" fill="#a3a2b3"/><rect x="45" y="6" width="22" height="5" fill="#574b49"/><rect x="43" y="29" width="26" height="23" fill="#ff688b"/><rect x="54" y="29" width="5" height="20" fill="#ff688b"/><rect x="45" y="52" width="8" height="13" fill="#193954"/><rect x="60" y="52" width="8" height="13" fill="#193954"/><rect x="51" y="17" width="3" height="3" fill="#09182b"/><rect x="61" y="17" width="3" height="3" fill="#09182b"/><rect x="40" y="11" width="8" height="16" fill="#a3a2b3"/><rect x="65" y="11" width="8" height="16" fill="#a3a2b3"/><rect x="56" y="23" width="7" height="15" fill="#a3a2b3"/><rect x="29" y="67" width="54" height="8" fill="#ffcd80"/><text x="33" y="73" fill="#09182b" font-size="6" font-family="monospace">GOP</text></g><g transform="translate(493 417) scale(1.35)"><rect x="48" y="10" width="16" height="19" fill="#d8b194"/><rect x="45" y="6" width="22" height="7" fill="#574b49"/><rect x="43" y="29" width="26" height="23" fill="#555074"/><rect x="54" y="29" width="5" height="20" fill="#b74c67"/><rect x="45" y="52" width="8" height="13" fill="#555074"/><rect x="60" y="52" width="8" height="13" fill="#555074"/><rect x="51" y="17" width="3" height="3" fill="#242137"/><rect x="61" y="17" width="3" height="3" fill="#242137"/><rect x="29" y="67" width="54" height="8" fill="#eed7a7"/><text x="33" y="73" fill="#242137" font-size="6" font-family="monospace">SENATOR</text></g><g transform="translate(718 417) scale(1.35)"><rect x="48" y="10" width="16" height="19" fill="#a3a2b3"/><rect x="45" y="6" width="22" height="5" fill="#574b49"/><rect x="43" y="29" width="26" height="23" fill="#ed5a91"/><rect x="54" y="29" width="5" height="20" fill="#ed5a91"/><rect x="45" y="52" width="8" height="13" fill="#30577d"/><rect x="60" y="52" width="8" height="13" fill="#30577d"/><rect x="51" y="17" width="3" height="3" fill="#111c37"/><rect x="61" y="17" width="3" height="3" fill="#111c37"/><rect x="40" y="11" width="8" height="16" fill="#a3a2b3"/><rect x="65" y="11" width="8" height="16" fill="#a3a2b3"/><rect x="56" y="23" width="7" height="15" fill="#a3a2b3"/><rect x="29" y="67" width="54" height="8" fill="#ffdc66"/><text x="33" y="73" fill="#111c37" font-size="6" font-family="monospace">GOP</text></g><rect x="20" y="541" width="920" height="119" fill="#13243b"/><text x="32" y="577" fill="#e9e7db" font-size="12" font-family="monospace">Top-column hanging pose</text><text x="32" y="598" fill="#879db7" font-size="11" font-family="monospace">FL-04</text><g transform="translate(268 549) scale(1.35)"><rect x="20" y="0" width="76" height="12" fill="#ffcd80"/><g transform="translate(0 73) scale(1 -1)"><rect x="48" y="14" width="16" height="19" fill="#a3a2b3"/><rect x="45" y="10" width="22" height="5" fill="#574b49"/><rect x="43" y="33" width="26" height="23" fill="#ff688b"/><rect x="54" y="33" width="5" height="20" fill="#ff688b"/><rect x="45" y="56" width="8" height="13" fill="#193954"/><rect x="60" y="56" width="8" height="13" fill="#193954"/><rect x="51" y="21" width="3" height="3" fill="#09182b"/><rect x="61" y="21" width="3" height="3" fill="#09182b"/><rect x="40" y="15" width="8" height="16" fill="#a3a2b3"/><rect x="65" y="15" width="8" height="16" fill="#a3a2b3"/><rect x="56" y="27" width="7" height="15" fill="#a3a2b3"/></g></g><g transform="translate(493 549) scale(1.35)"><rect x="20" y="0" width="76" height="12" fill="#eed7a7"/><g transform="translate(0 73) scale(1 -1)"><rect x="48" y="14" width="16" height="19" fill="#a3a2b3"/><rect x="45" y="10" width="22" height="7" fill="#574b49"/><rect x="43" y="33" width="26" height="23" fill="#b74c67"/><rect x="54" y="33" width="5" height="20" fill="#b74c67"/><rect x="45" y="56" width="8" height="13" fill="#555074"/><rect x="60" y="56" width="8" height="13" fill="#555074"/><rect x="51" y="21" width="3" height="3" fill="#242137"/><rect x="61" y="21" width="3" height="3" fill="#242137"/><rect x="40" y="15" width="8" height="16" fill="#a3a2b3"/><rect x="65" y="15" width="8" height="16" fill="#a3a2b3"/><rect x="56" y="27" width="7" height="15" fill="#a3a2b3"/></g></g><g transform="translate(718 549) scale(1.35)"><rect x="20" y="0" width="76" height="12" fill="#ffdc66"/><g transform="translate(0 73) scale(1 -1)"><rect x="48" y="14" width="16" height="19" fill="#a3a2b3"/><rect x="45" y="10" width="22" height="5" fill="#574b49"/><rect x="43" y="33" width="26" height="23" fill="#ed5a91"/><rect x="54" y="33" width="5" height="20" fill="#ed5a91"/><rect x="45" y="56" width="8" height="13" fill="#30577d"/><rect x="60" y="56" width="8" height="13" fill="#30577d"/><rect x="51" y="21" width="3" height="3" fill="#111c37"/><rect x="61" y="21" width="3" height="3" fill="#111c37"/><rect x="40" y="15" width="8" height="16" fill="#a3a2b3"/><rect x="65" y="15" width="8" height="16" fill="#a3a2b3"/><rect x="56" y="27" width="7" height="15" fill="#a3a2b3"/></g></g><rect x="20" y="673" width="920" height="119" fill="#102036"/><text x="32" y="709" fill="#e9e7db" font-size="12" font-family="monospace">Name plaque</text><text x="32" y="730" fill="#879db7" font-size="11" font-family="monospace">FL-05</text><g transform="translate(268 681) scale(1.35)"><rect x="15" y="22" width="90" height="32" fill="#ffcd80"/><rect x="18" y="25" width="3" height="3" fill="#fff1d5"/><rect x="98" y="25" width="3" height="3" fill="#fff1d5"/><text x="27" y="41" fill="#09182b" font-size="9" font-family="monospace">REAL NAME</text></g><g transform="translate(493 681) scale(1.35)"><rect x="15" y="22" width="90" height="32" fill="#b74c67"/><rect x="18" y="25" width="3" height="3" fill="#faf2df"/><rect x="98" y="25" width="3" height="3" fill="#faf2df"/><text x="27" y="41" fill="#faf2df" font-size="9" font-family="monospace">REAL NAME</text></g><g transform="translate(718 681) scale(1.35)"><rect x="15" y="22" width="90" height="32" fill="#111c37"/><rect x="18" y="25" width="3" height="3" fill="#ffffff"/><rect x="98" y="25" width="3" height="3" fill="#ffffff"/><text x="27" y="41" fill="#ffffff" font-size="9" font-family="monospace">REAL NAME</text></g><rect x="20" y="805" width="920" height="119" fill="#13243b"/><text x="32" y="841" fill="#e9e7db" font-size="12" font-family="monospace">Trump distraction / hands</text><text x="32" y="862" fill="#879db7" font-size="11" font-family="monospace">FL-06</text><g transform="translate(268 813) scale(1.35)"><rect x="50" y="12" width="16" height="19" fill="#ed9854"/><rect x="47" y="8" width="22" height="5" fill="#f4d057"/><rect x="45" y="31" width="26" height="23" fill="#193954"/><rect x="56" y="31" width="5" height="20" fill="#ff688b"/><rect x="47" y="54" width="8" height="13" fill="#193954"/><rect x="62" y="54" width="8" height="13" fill="#193954"/><rect x="53" y="19" width="3" height="3" fill="#09182b"/><rect x="63" y="19" width="3" height="3" fill="#09182b"/><rect x="42" y="41" width="32" height="14" fill="#193954"/><rect x="57" y="46" width="5" height="19" fill="#ff688b"/><rect x="7" y="29" width="29" height="27" fill="#ed9854"/><rect x="79" y="29" width="29" height="27" fill="#ed9854"/><rect x="7" y="18" width="5" height="15" fill="#ed9854"/><rect x="79" y="18" width="5" height="15" fill="#ed9854"/><rect x="14" y="15" width="5" height="15" fill="#ed9854"/><rect x="86" y="15" width="5" height="15" fill="#ed9854"/><rect x="21" y="18" width="5" height="15" fill="#ed9854"/><rect x="93" y="18" width="5" height="15" fill="#ed9854"/><rect x="28" y="15" width="5" height="15" fill="#ed9854"/><rect x="100" y="15" width="5" height="15" fill="#ed9854"/></g><g transform="translate(493 813) scale(1.35)"><rect x="50" y="12" width="16" height="19" fill="#ed9854"/><rect x="47" y="8" width="22" height="7" fill="#f4d057"/><rect x="45" y="31" width="26" height="23" fill="#555074"/><rect x="56" y="31" width="5" height="20" fill="#b74c67"/><rect x="47" y="54" width="8" height="13" fill="#555074"/><rect x="62" y="54" width="8" height="13" fill="#555074"/><rect x="53" y="19" width="3" height="3" fill="#242137"/><rect x="63" y="19" width="3" height="3" fill="#242137"/><rect x="42" y="41" width="32" height="14" fill="#555074"/><rect x="57" y="46" width="5" height="19" fill="#b74c67"/><rect x="7" y="29" width="29" height="27" fill="#ed9854"/><rect x="79" y="29" width="29" height="27" fill="#ed9854"/><rect x="7" y="18" width="5" height="15" fill="#ed9854"/><rect x="79" y="18" width="5" height="15" fill="#ed9854"/><rect x="14" y="15" width="5" height="15" fill="#ed9854"/><rect x="86" y="15" width="5" height="15" fill="#ed9854"/><rect x="21" y="18" width="5" height="15" fill="#ed9854"/><rect x="93" y="18" width="5" height="15" fill="#ed9854"/><rect x="28" y="15" width="5" height="15" fill="#ed9854"/><rect x="100" y="15" width="5" height="15" fill="#ed9854"/></g><g transform="translate(718 813) scale(1.35)"><rect x="50" y="12" width="16" height="19" fill="#ed9854"/><rect x="47" y="8" width="22" height="5" fill="#f4d057"/><rect x="45" y="31" width="26" height="23" fill="#30577d"/><rect x="56" y="31" width="5" height="20" fill="#ed5a91"/><rect x="47" y="54" width="8" height="13" fill="#30577d"/><rect x="62" y="54" width="8" height="13" fill="#30577d"/><rect x="53" y="19" width="3" height="3" fill="#111c37"/><rect x="63" y="19" width="3" height="3" fill="#111c37"/><rect x="42" y="41" width="32" height="14" fill="#30577d"/><rect x="57" y="46" width="5" height="19" fill="#ed5a91"/><rect x="32" y="18" width="12" height="21" fill="#ed9854"/><rect x="73" y="18" width="12" height="21" fill="#ed9854"/><rect x="7" y="29" width="29" height="27" fill="#ed9854"/><rect x="79" y="29" width="29" height="27" fill="#ed9854"/><rect x="7" y="18" width="5" height="15" fill="#ed9854"/><rect x="79" y="18" width="5" height="15" fill="#ed9854"/><rect x="14" y="15" width="5" height="15" fill="#ed9854"/><rect x="86" y="15" width="5" height="15" fill="#ed9854"/><rect x="21" y="18" width="5" height="15" fill="#ed9854"/><rect x="93" y="18" width="5" height="15" fill="#ed9854"/><rect x="28" y="15" width="5" height="15" fill="#ed9854"/><rect x="100" y="15" width="5" height="15" fill="#ed9854"/></g><rect x="20" y="937" width="920" height="119" fill="#102036"/><text x="32" y="973" fill="#e9e7db" font-size="12" font-family="monospace">Hamburger pickup</text><text x="32" y="994" fill="#879db7" font-size="11" font-family="monospace">FL-07</text><g transform="translate(268 945) scale(1.35)"><path d="M30 32L36 22L46 17H72L83 23L89 32Z" fill="#ffcd80"/><rect x="29" y="34" width="61" height="5" fill="#72e5d6"/><rect x="31" y="40" width="58" height="9" fill="#70432f"/><rect x="30" y="51" width="59" height="10" fill="#ffcd80"/><rect x="45" y="23" width="3" height="2" fill="#fff1d5"/><rect x="63" y="21" width="3" height="2" fill="#fff1d5"/></g><g transform="translate(493 945) scale(1.35)"><path d="M30 32L36 22L46 17H72L83 23L89 32Z" fill="#eed7a7"/><rect x="29" y="34" width="61" height="5" fill="#92c7bd"/><rect x="31" y="40" width="58" height="9" fill="#70432f"/><rect x="30" y="51" width="59" height="10" fill="#eed7a7"/><path d="M23 40L36 52H86L96 39L88 70H30Z" fill="#b74c67"/><rect x="45" y="23" width="3" height="2" fill="#faf2df"/><rect x="63" y="21" width="3" height="2" fill="#faf2df"/></g><g transform="translate(718 945) scale(1.35)"><path d="M30 32L36 22L46 17H72L83 23L89 32Z" fill="#ffdc66"/><rect x="29" y="34" width="61" height="5" fill="#a1e8ff"/><rect x="31" y="40" width="58" height="9" fill="#70432f"/><rect x="30" y="51" width="59" height="10" fill="#ffdc66"/><rect x="33" y="46" width="55" height="4" fill="#ed5a91"/><rect x="45" y="23" width="3" height="2" fill="#ffffff"/><rect x="63" y="21" width="3" height="2" fill="#ffffff"/></g><rect x="20" y="1069" width="920" height="119" fill="#13243b"/><text x="32" y="1105" fill="#e9e7db" font-size="12" font-family="monospace">Public recipients</text><text x="32" y="1126" fill="#879db7" font-size="11" font-family="monospace">FL-08</text><g transform="translate(268 1077) scale(1.35)"><rect x="22" y="16" width="16" height="19" fill="#d8b194"/><rect x="19" y="12" width="22" height="5" fill="#bcdcca"/><rect x="17" y="35" width="26" height="23" fill="#193954"/><rect x="28" y="35" width="5" height="20" fill="#ff688b"/><rect x="19" y="58" width="8" height="13" fill="#193954"/><rect x="34" y="58" width="8" height="13" fill="#193954"/><rect x="25" y="23" width="3" height="3" fill="#09182b"/><rect x="35" y="23" width="3" height="3" fill="#09182b"/><rect x="22" y="39" width="17" height="17" fill="#72e5d6"/><rect x="56" y="9" width="16" height="19" fill="#d8b194"/><rect x="53" y="5" width="22" height="5" fill="#574b49"/><rect x="51" y="28" width="26" height="23" fill="#193954"/><rect x="62" y="28" width="5" height="20" fill="#ff688b"/><rect x="53" y="51" width="8" height="13" fill="#193954"/><rect x="68" y="51" width="8" height="13" fill="#193954"/><rect x="59" y="16" width="3" height="3" fill="#09182b"/><rect x="69" y="16" width="3" height="3" fill="#09182b"/><rect x="89" y="16" width="16" height="19" fill="#d8b194"/><rect x="86" y="12" width="22" height="5" fill="#bcdcca"/><rect x="84" y="35" width="26" height="23" fill="#193954"/><rect x="95" y="35" width="5" height="20" fill="#ff688b"/><rect x="86" y="58" width="8" height="13" fill="#193954"/><rect x="101" y="58" width="8" height="13" fill="#193954"/><rect x="92" y="23" width="3" height="3" fill="#09182b"/><rect x="102" y="23" width="3" height="3" fill="#09182b"/><rect x="89" y="39" width="17" height="17" fill="#72e5d6"/></g><g transform="translate(493 1077) scale(1.35)"><rect x="22" y="16" width="16" height="19" fill="#d8b194"/><rect x="19" y="12" width="22" height="7" fill="#bcdcca"/><rect x="17" y="35" width="26" height="23" fill="#555074"/><rect x="28" y="35" width="5" height="20" fill="#b74c67"/><rect x="19" y="58" width="8" height="13" fill="#555074"/><rect x="34" y="58" width="8" height="13" fill="#555074"/><rect x="25" y="23" width="3" height="3" fill="#242137"/><rect x="35" y="23" width="3" height="3" fill="#242137"/><rect x="22" y="39" width="17" height="17" fill="#92c7bd"/><rect x="56" y="9" width="16" height="19" fill="#d8b194"/><rect x="53" y="5" width="22" height="7" fill="#574b49"/><rect x="51" y="28" width="26" height="23" fill="#555074"/><rect x="62" y="28" width="5" height="20" fill="#b74c67"/><rect x="53" y="51" width="8" height="13" fill="#555074"/><rect x="68" y="51" width="8" height="13" fill="#555074"/><rect x="59" y="16" width="3" height="3" fill="#242137"/><rect x="69" y="16" width="3" height="3" fill="#242137"/><rect x="89" y="16" width="16" height="19" fill="#d8b194"/><rect x="86" y="12" width="22" height="7" fill="#bcdcca"/><rect x="84" y="35" width="26" height="23" fill="#555074"/><rect x="95" y="35" width="5" height="20" fill="#b74c67"/><rect x="86" y="58" width="8" height="13" fill="#555074"/><rect x="101" y="58" width="8" height="13" fill="#555074"/><rect x="92" y="23" width="3" height="3" fill="#242137"/><rect x="102" y="23" width="3" height="3" fill="#242137"/><rect x="89" y="39" width="17" height="17" fill="#92c7bd"/><rect x="17" y="49" width="91" height="11" fill="#eed7a7"/><rect x="22" y="60" width="5" height="12" fill="#eed7a7"/><rect x="96" y="60" width="5" height="12" fill="#eed7a7"/></g><g transform="translate(718 1077) scale(1.35)"><rect x="22" y="16" width="16" height="19" fill="#d8b194"/><rect x="19" y="12" width="22" height="5" fill="#bcdcca"/><rect x="17" y="35" width="26" height="23" fill="#30577d"/><rect x="28" y="35" width="5" height="20" fill="#ed5a91"/><rect x="19" y="58" width="8" height="13" fill="#30577d"/><rect x="34" y="58" width="8" height="13" fill="#30577d"/><rect x="25" y="23" width="3" height="3" fill="#111c37"/><rect x="35" y="23" width="3" height="3" fill="#111c37"/><rect x="22" y="39" width="17" height="17" fill="#a1e8ff"/><rect x="56" y="9" width="16" height="19" fill="#d8b194"/><rect x="53" y="5" width="22" height="5" fill="#574b49"/><rect x="51" y="28" width="26" height="23" fill="#30577d"/><rect x="62" y="28" width="5" height="20" fill="#ed5a91"/><rect x="53" y="51" width="8" height="13" fill="#30577d"/><rect x="68" y="51" width="8" height="13" fill="#30577d"/><rect x="59" y="16" width="3" height="3" fill="#111c37"/><rect x="69" y="16" width="3" height="3" fill="#111c37"/><rect x="89" y="16" width="16" height="19" fill="#d8b194"/><rect x="86" y="12" width="22" height="5" fill="#bcdcca"/><rect x="84" y="35" width="26" height="23" fill="#30577d"/><rect x="95" y="35" width="5" height="20" fill="#ed5a91"/><rect x="86" y="58" width="8" height="13" fill="#30577d"/><rect x="101" y="58" width="8" height="13" fill="#30577d"/><rect x="92" y="23" width="3" height="3" fill="#111c37"/><rect x="102" y="23" width="3" height="3" fill="#111c37"/><rect x="89" y="39" width="17" height="17" fill="#a1e8ff"/></g><rect x="20" y="1201" width="920" height="119" fill="#102036"/><text x="32" y="1237" fill="#e9e7db" font-size="12" font-family="monospace">National Mall backdrop</text><text x="32" y="1258" fill="#879db7" font-size="11" font-family="monospace">FL-09</text><g transform="translate(268 1209) scale(1.35)"><rect x="10" y="42" width="25" height="31" fill="#193954"/><rect x="43" y="28" width="36" height="45" fill="#193954"/><path d="M38 29L61 12L84 29Z" fill="#fff1d5"/><rect x="91" y="33" width="17" height="40" fill="#193954"/><rect x="49" y="35" width="4" height="31" fill="#ffcd80"/><rect x="57" y="35" width="4" height="31" fill="#ffcd80"/><rect x="65" y="35" width="4" height="31" fill="#ffcd80"/><rect x="73" y="35" width="4" height="31" fill="#ffcd80"/></g><g transform="translate(493 1209) scale(1.35)"><rect x="10" y="42" width="25" height="31" fill="#555074"/><rect x="43" y="28" width="36" height="45" fill="#555074"/><path d="M38 29L61 12L84 29Z" fill="#faf2df"/><rect x="91" y="33" width="17" height="40" fill="#555074"/><rect x="49" y="35" width="4" height="31" fill="#eed7a7"/><rect x="57" y="35" width="4" height="31" fill="#eed7a7"/><rect x="65" y="35" width="4" height="31" fill="#eed7a7"/><rect x="73" y="35" width="4" height="31" fill="#eed7a7"/></g><g transform="translate(718 1209) scale(1.35)"><rect x="10" y="42" width="25" height="31" fill="#30577d"/><rect x="43" y="28" width="36" height="45" fill="#30577d"/><path d="M38 29L61 12L84 29Z" fill="#ffffff"/><rect x="91" y="33" width="17" height="40" fill="#30577d"/><rect x="49" y="35" width="4" height="31" fill="#ffdc66"/><rect x="57" y="35" width="4" height="31" fill="#ffdc66"/><rect x="65" y="35" width="4" height="31" fill="#ffdc66"/><rect x="73" y="35" width="4" height="31" fill="#ffdc66"/></g></svg>